<svg width="12" height="12" viewBox="0 0 12 12" fill="none" xmlns="http://www.w3.org/2000/svg">
<path fill-rule="evenodd" clip-rule="evenodd" d="M5.99997 0.572693C6.16242 0.572693 6.30639 0.67729 6.3566 0.831786L7.49115 4.32269H11.25C11.4143 4.32269 11.5595 4.4297 11.6082 4.58668C11.6568 4.74366 11.5976 4.91402 11.462 5.00697L8.41474 7.09655L9.58965 10.5778C9.64183 10.7324 9.58806 10.903 9.45667 10.9997C9.32527 11.0964 9.14642 11.0971 9.0143 11.0013L5.99997 8.81705L2.98563 11.0013C2.85352 11.0971 2.67466 11.0964 2.54327 10.9997C2.41188 10.903 2.35811 10.7324 2.41028 10.5778L3.5852 7.09655L0.537894 5.00697C0.402354 4.91402 0.343124 4.74366 0.391775 4.58668C0.440427 4.4297 0.585622 4.32269 0.749967 4.32269H4.50878L5.64333 0.831786C5.69354 0.67729 5.83752 0.572693 5.99997 0.572693ZM5.99997 2.16095L5.13785 4.8136C5.08764 4.9681 4.94367 5.07269 4.78122 5.07269H1.95994L4.24329 6.63842C4.38169 6.73332 4.44019 6.90861 4.38653 7.06761L3.4964 9.70501L5.77993 8.05029C5.9112 7.95516 6.08873 7.95516 6.22001 8.05029L8.50353 9.70501L7.61341 7.06761C7.55975 6.90861 7.61825 6.73332 7.75664 6.63842L10.04 5.07269H7.21872C7.05627 5.07269 6.91229 4.9681 6.86208 4.8136L5.99997 2.16095Z" fill="#FF859B"/>
</svg>
